<?xml version="1.0" standalone="no"?>
<!DOCTYPE svg PUBLIC "-//W3C//DTD SVG 20010904//EN"
 "http://www.w3.org/TR/2001/REC-SVG-20010904/DTD/svg10.dtd">
<svg version="1.0" xmlns="http://www.w3.org/2000/svg"
 width="512.000000pt" height="512.000000pt" viewBox="0 0 512.000000 512.000000"
 preserveAspectRatio="xMidYMid meet">

<g transform="translate(0.000000,512.000000) scale(0.100000,-0.100000)"
fill="#FFDB6E" stroke="none">
<path d="M1725 5109 c-349 -39 -673 -266 -830 -584 -63 -128 -93 -234 -110
-386 -6 -56 -6 -56 -48 -69 -72 -21 -206 -87 -275 -137 -240 -170 -397 -417
-446 -702 -88 -516 229 -1034 729 -1191 140 -43 212 -50 548 -50 l317 0 0
-295 0 -295 -265 0 c-244 0 -266 1 -271 18 -21 65 -74 152 -126 208 -218 232
-576 233 -794 1 -281 -298 -156 -773 236 -899 84 -26 221 -28 305 -4 171 50
301 169 369 338 l15 37 365 3 c350 3 366 4 392 24 15 11 37 33 48 48 20 26 21
41 24 422 l3 394 249 0 250 0 0 -452 0 -453 -78 -35 c-100 -45 -214 -154 -261
-250 -57 -119 -74 -250 -46 -369 59 -251 279 -425 535 -425 256 0 476 174 535
425 28 119 11 250 -46 369 -47 96 -161 205 -261 250 l-78 35 0 453 0 452 250
0 249 0 3 -394 c3 -381 4 -396 24 -422 11 -15 33 -37 48 -48 26 -20 42 -21
392 -24 l365 -3 15 -37 c35 -86 63 -129 124 -191 111 -112 238 -165 395 -164
255 2 471 174 530 424 42 179 -8 358 -139 496 -218 232 -576 231 -794 -1 -52
-56 -105 -143 -126 -208 -5 -17 -27 -18 -271 -18 l-265 0 0 295 0 295 318 0
c335 0 407 7 547 50 455 143 766 589 741 1065 -21 427 -293 801 -691 950 l-60
23 -31 90 c-66 190 -154 331 -294 472 -227 228 -495 345 -820 357 -212 8 -401
-32 -580 -122 l-70 -35 -65 49 c-170 130 -333 196 -550 221 -101 11 -117 11
-230 -1z m303 -315 c74 -16 191 -68 257 -114 25 -17 81 -65 125 -106 78 -73
80 -74 133 -74 46 0 63 6 116 40 160 103 295 149 471 157 188 9 348 -28 502
-116 239 -136 380 -338 459 -654 17 -70 53 -99 161 -131 209 -63 357 -176 462
-355 188 -321 116 -729 -172 -974 -75 -64 -236 -142 -334 -161 -68 -14 -267
-16 -1648 -16 -1775 0 -1650 -5 -1825 80 -204 99 -344 266 -407 487 -29 101
-31 285 -5 383 76 284 291 493 579 564 156 39 178 63 178 206 0 231 68 412
212 565 126 135 282 211 493 239 47 6 174 -4 243 -20z m-1378 -3315 c88 -40
138 -111 147 -210 13 -138 -104 -262 -247 -262 -103 0 -182 53 -228 152 -73
158 49 341 228 341 34 0 72 -8 100 -21z m4020 0 c88 -40 138 -111 147 -210 13
-138 -104 -262 -247 -262 -103 0 -182 53 -228 152 -73 158 49 341 228 341 34
0 72 -8 100 -21z m-2010 -700 c88 -40 138 -111 147 -210 13 -138 -104 -262
-247 -262 -103 0 -182 53 -228 152 -73 158 49 341 228 341 34 0 72 -8 100 -21z"/>
</g>
</svg>
