<?xml version="1.0" standalone="no"?>
<!DOCTYPE svg PUBLIC "-//W3C//DTD SVG 20010904//EN"
 "http://www.w3.org/TR/2001/REC-SVG-20010904/DTD/svg10.dtd">
<svg version="1.0" xmlns="http://www.w3.org/2000/svg"
 width="512.000000pt" height="512.000000pt" viewBox="0 0 512.000000 512.000000"
 preserveAspectRatio="xMidYMid meet">

<g transform="translate(0.000000,512.000000) scale(0.100000,-0.100000)"
fill="#FFDB6E" stroke="none">
<path d="M960 4947 c-49 -16 -133 -102 -148 -153 -9 -32 -12 -352 -12 -1353
l0 -1312 25 -24 c32 -33 78 -33 110 0 l25 24 0 1016 0 1015 1600 0 1600 0 0
-1015 0 -1016 25 -24 c32 -33 78 -33 110 0 l25 24 0 1312 c0 1001 -3 1321 -12
1353 -16 55 -99 138 -154 154 -56 16 -3141 16 -3194 -1z m3175 -172 c25 -24
25 -24 25 -240 l0 -215 -1600 0 -1600 0 0 215 c0 216 0 216 25 240 l24 25
1551 0 1551 0 24 -25z"/>
<path d="M1145 4615 c-50 -49 -15 -135 55 -135 41 0 80 39 80 80 0 41 -39 80
-80 80 -19 0 -40 -9 -55 -25z"/>
<path d="M1465 4615 c-50 -49 -15 -135 55 -135 41 0 80 39 80 80 0 41 -39 80
-80 80 -19 0 -40 -9 -55 -25z"/>
<path d="M1785 4615 c-50 -49 -15 -135 55 -135 41 0 80 39 80 80 0 41 -39 80
-80 80 -19 0 -40 -9 -55 -25z"/>
<path d="M2905 4615 c-16 -15 -25 -36 -25 -55 0 -19 9 -40 25 -55 l24 -25 509
0 c485 0 511 1 533 19 33 27 33 95 0 122 -22 18 -48 19 -533 19 l-509 0 -24
-25z"/>
<path d="M320 4467 c-49 -16 -133 -102 -148 -153 -17 -58 -18 -2968 0 -3025
16 -55 73 -118 132 -145 l51 -24 2205 0 2205 0 51 24 c59 27 116 90 132 145
18 57 17 2967 0 3025 -16 55 -99 138 -154 154 -23 7 -92 12 -153 12 -105 0
-113 -1 -136 -25 -33 -32 -33 -78 0 -110 23 -24 31 -25 135 -25 104 0 112 -1
135 -25 l25 -24 0 -1176 0 -1175 -2240 0 -2240 0 0 1175 0 1176 25 24 c23 24
31 25 135 25 104 0 112 1 135 25 33 32 33 78 0 110 -23 24 -29 25 -142 24 -65
-1 -134 -6 -153 -12z m4480 -2922 c0 -216 0 -216 -25 -240 l-24 -25 -2191 0
-2191 0 -24 25 c-25 24 -25 24 -25 240 l0 215 2240 0 2240 0 0 -215z"/>
<path d="M2363 1588 c-12 -6 -27 -23 -34 -39 -15 -37 4 -87 38 -100 33 -12
379 -12 403 1 25 13 41 65 30 94 -19 51 -40 56 -235 55 -104 0 -189 -5 -202
-11z"/>
<path d="M2751 3823 c-16 -13 -86 -214 -266 -753 -135 -404 -245 -745 -245
-758 0 -57 83 -92 129 -54 16 12 86 213 266 752 135 404 245 745 245 758 0 57
-83 92 -129 55z"/>
<path d="M1633 3305 c-144 -121 -262 -226 -267 -240 -6 -16 -6 -34 0 -50 5
-14 121 -118 267 -240 220 -182 264 -215 291 -215 44 0 76 35 76 82 0 35 -8
43 -212 213 -117 98 -213 181 -213 185 0 4 88 80 195 169 107 89 203 171 213
183 25 29 22 74 -8 103 -50 51 -62 44 -342 -190z"/>
<path d="M3145 3495 c-27 -26 -33 -71 -12 -97 6 -9 102 -91 212 -183 110 -91
200 -170 200 -175 0 -5 -90 -84 -200 -175 -110 -92 -206 -174 -212 -183 -21
-26 -15 -71 12 -97 49 -50 61 -44 345 191 166 138 263 226 266 240 4 13 4 35
0 47 -3 15 -101 103 -266 240 -284 236 -295 243 -345 192z"/>
<path d="M2069 951 c-14 -11 -43 -50 -65 -87 -21 -37 -72 -103 -113 -146 l-73
-78 -85 0 c-47 0 -103 -5 -124 -12 -55 -16 -118 -73 -145 -132 -21 -44 -24
-66 -24 -169 0 -112 1 -119 25 -142 l24 -25 1071 0 1071 0 24 25 c24 23 25 31
25 136 0 144 -11 181 -75 244 -60 61 -101 75 -214 75 l-82 0 -51 48 c-60 55
-127 141 -156 197 -27 54 -56 78 -94 78 -35 0 -78 -40 -78 -74 0 -29 43 -109
99 -183 l50 -66 -519 0 -519 0 50 66 c56 74 99 154 99 183 0 27 -39 69 -70 76
-18 4 -34 0 -51 -14z m1426 -496 c21 -20 25 -34 25 -80 l0 -55 -960 0 -960 0
0 55 c0 46 4 60 25 80 l24 25 911 0 911 0 24 -25z"/>
</g>
</svg>
