<svg width="100" height="100" viewBox="0 0 100 100" fill="none" xmlns="http://www.w3.org/2000/svg">
    <!-- Gradient Definition -->
    <defs>
        <linearGradient id="borderGradient" x1="0" y1="0" x2="100" y2="100" gradientUnits="userSpaceOnUse">
            <stop offset="0.259336" stop-color="#FFDB6E"/>
            <stop offset="1" stop-color="#FFBC5E"/>
        </linearGradient>
    </defs>

    <!-- Server Stack with Gradient Outline -->
    <rect x="10" y="10" width="88" height="20" rx="4" fill="#443e2f" stroke="url(#borderGradient)" stroke-width="3"/>
    <rect x="10" y="35" width="88" height="20" rx="4" fill="#443e2f" stroke="url(#borderGradient)" stroke-width="3"/>
    <rect x="10" y="60" width="88" height="20" rx="4" fill="#443e2f" stroke="url(#borderGradient)" stroke-width="3"/>
    
    <!-- Server Indicators -->
    <circle cx="85" cy="20" r="3" fill="#222224"/>
    <circle cx="85" cy="45" r="3" fill="#222224"/>
    <circle cx="85" cy="70" r="3" fill="#222224"/>
    
    <!-- Connections with Gradient Outline -->
    <circle cx="50" cy="91.5" r="5" fill="#443e2f" stroke="url(#borderGradient)" stroke-width="3"/>
    
    <!-- Cloud with Gradient Outline -->
    <path d="M75 90H35C30 90 27 85 27 82C27 77 30 74 33 73C33 68 38 64 43 64C46 64 48 65 50 67C52 64 55 62 58 62C63 62 68 66 68 71C72 71 75 74 75 78C75 83 72 90 75 90" 
          fill="#443e2f" stroke="url(#borderGradient)" stroke-width="3"/>
</svg>
